<?xml version="1.0" encoding="UTF-8"?>
<svg id="_图层_1" data-name="图层_1" xmlns="http://www.w3.org/2000/svg" version="1.1" viewBox="0 0 22 22">
  <!-- Generator: Adobe Illustrator 29.0.0, SVG Export Plug-In . SVG Version: 2.1.0 Build 186)  -->
  <defs>
    <style>
      .st0 {
        stroke-width: .8px;
      }

      .st0, .st1 {
        stroke: #000;
        stroke-miterlimit: 10;
      }

      .st1 {
        stroke-width: .5px;
      }
    </style>
  </defs>
  <path class="st0" d="M17,4.1h0c.3,0,.5,0,.7.2.8.8-.6,4.6-4.7,8.6-3.4,3.4-6.5,4.9-7.9,4.9s-.6,0-.7-.2c-.8-.8.6-4.6,4.7-8.6,3.4-3.4,6.5-4.9,7.9-4.9M17,3.4c-2,0-5.3,2-8.5,5.1-4,4-6.1,8.3-4.7,9.7.3.3.7.4,1.2.4,2,0,5.3-2,8.5-5.1,4-4,6.1-8.3,4.7-9.7-.3-.3-.7-.4-1.2-.4h0Z"/>
  <path class="st0" d="M5,4.1h0c1.5,0,4.6,1.5,7.9,4.9s5.5,7.8,4.7,8.6-.4.2-.7.2c-1.5,0-4.6-1.5-7.9-4.9C5,8.9,3.5,5.1,4.3,4.3c.1-.1.4-.2.7-.2M5,3.4c-.5,0-.9.1-1.2.4-1.4,1.4.7,5.7,4.7,9.7,3.1,3.1,6.5,5.1,8.5,5.1s.9-.1,1.2-.4c1.4-1.4-.7-5.7-4.7-9.7-3.1-3.1-6.5-5.1-8.5-5.1h0Z"/>
  <g>
    <path class="st1" d="M11,11.8c-.5,0-.9-.4-.9-.9s.4-.9.9-.9.9.4.9.9-.4.9-.9.9Z"/>
    <path class="st1" d="M11,10.4c.3,0,.6.3.6.6s-.3.6-.6.6-.6-.3-.6-.6.3-.6.6-.6M11,9.9c-.6,0-1.1.5-1.1,1.1s.5,1.1,1.1,1.1,1.1-.5,1.1-1.1-.5-1.1-1.1-1.1h0Z"/>
  </g>
</svg>