<?xml version="1.0" encoding="UTF-8"?>
<svg xmlns="http://www.w3.org/2000/svg" width="22" height="22" viewBox="0 0 22 22">
  <path d="M16.97,4.14h0c.32,0,.55.07.69.21.8.8-.62,4.57-4.69,8.63-3.36,3.36-6.47,4.89-7.94,4.89-.32,0-.55-.07-.69-.21-.8-.8.62-4.57,4.69-8.63,3.36-3.36,6.47-4.89,7.94-4.89M16.97,3.39c-1.96,0-5.33,1.97-8.47,5.11-3.97,3.97-6.07,8.31-4.69,9.69.29.29.71.43,1.22.43,1.96,0,5.33-1.97,8.47-5.11,3.97-3.97,6.07-8.31,4.69-9.69-.29-.29-.71-.43-1.22-.43h0Z"/>
  <path d="M5.03,4.14h0c1.47,0,4.58,1.53,7.94,4.89,4.06,4.06,5.49,7.83,4.69,8.63-.14.14-.37.21-.69.21-1.47,0-4.58-1.53-7.94-4.89C4.96,8.91,3.54,5.15,4.34,4.34c.14-.14.37-.21.69-.21M5.03,3.39c-.52,0-.93.14-1.22.43-1.38,1.38.72,5.72,4.69,9.69,3.14,3.14,6.52,5.11,8.47,5.11.52,0,.93-.14,1.22-.43,1.38-1.38-.72-5.72-4.69-9.69-3.14-3.14-6.52-5.11-8.47-5.11h0Z"/>
  <g>
    <path d="M11,11.85c-.47,0-.85-.38-.85-.85s.38-.85.85-.85.85.38.85.85-.38.85-.85.85Z"/>
    <path d="M11,10.4c.33,0,.6.27.6.6s-.27.6-.6.6-.6-.27-.6-.6.27-.6.6-.6M11,9.9c-.6,0-1.1.49-1.1,1.1s.49,1.1,1.1,1.1,1.1-.49,1.1-1.1-.49-1.1-1.1-1.1h0Z"/>
  </g>
</svg>